<?xml version="1.0" encoding="utf-8"?>
<!-- Generator: Adobe Illustrator 27.0.1, SVG Export Plug-In . SVG Version: 6.00 Build 0)  -->
<svg version="1.1" id="_图层_1" xmlns="http://www.w3.org/2000/svg" xmlns:xlink="http://www.w3.org/1999/xlink" x="0px" y="0px"
	 viewBox="0 0 1407.3 219.3" style="enable-background:new 0 0 1407.3 219.3;" xml:space="preserve">
<style type="text/css">
	.st0{fill:none;stroke:#DBDBDB;stroke-width:2;stroke-miterlimit:10;}
</style>
<g>
	<path class="st0" d="M88.2,118.8c14-5.9,25.4-11.8,34.4-17.8c8.9-6,15.5-12.2,19.9-18.7c4.3-6.5,6.5-13.5,6.5-21
		c0-9.7-2.9-18.2-8.6-25.5c-5.7-7.3-13.7-13-24.1-17.2C106,14.5,93.9,12.4,80,12.4c-14.5,0-27.6,2.3-39.2,6.8s-21,11-28,19.5
		C5.8,47.1,1.9,57.2,1,68.9h48.9c0.4-3.6,1.6-6.8,3.6-9.7s5.1-5.3,9.1-7.1s9.2-2.7,15.6-2.7c4.6,0,8.5,0.6,11.8,1.8s5.8,2.9,7.5,5.1
		c1.7,2.2,2.6,4.8,2.6,8c0,2.9-0.9,5.6-2.8,8.1c-1.8,2.5-5.1,5.2-9.8,8.3c-4.7,3.1-11.5,6.9-20.4,11.6l-61.8,33v33.6h147.4v-38H83.2
		L88.2,118.8z"/>
	<path class="st0" d="M294.9,21.8c-12.5-6.2-27.1-9.4-43.8-9.4s-31.3,3.1-43.8,9.4C194.8,28,185,36.8,178.1,48
		c-6.9,11.3-10.4,24.4-10.4,39.4c0,15,3.5,28.2,10.4,39.4c6.9,11.3,16.7,20,29.2,26.2s27.1,9.4,43.8,9.4s31.3-3.1,43.8-9.4
		c12.5-6.2,22.3-15,29.2-26.2c6.9-11.3,10.4-24.4,10.4-39.4c0-15-3.5-28.2-10.4-39.4C317.1,36.8,307.4,28,294.9,21.8z M276.5,113.5
		c-6,6.2-14.5,9.3-25.3,9.3c-10.9,0-19.5-3.1-25.6-9.3s-9.2-14.9-9.2-26.2c0-11.2,3.1-19.9,9.2-26c6.1-6.1,14.6-9.2,25.4-9.2
		c10.9,0,19.4,3.1,25.5,9.2c6,6.1,9.1,14.8,9.1,26.2C285.6,98.6,282.6,107.3,276.5,113.5z"/>
	<path class="st0" d="M433.9,118.8c14-5.9,25.4-11.8,34.4-17.8c8.9-6,15.5-12.2,19.9-18.7c4.3-6.5,6.5-13.5,6.5-21
		c0-9.7-2.9-18.2-8.6-25.5s-13.7-13-24-17.2c-10.3-4.1-22.4-6.2-36.3-6.2c-14.5,0-27.6,2.3-39.2,6.8s-21,11-28,19.5
		S347.7,57.2,346.8,69h48.9c0.4-3.6,1.6-6.8,3.6-9.7s5.1-5.3,9.1-7.1s9.2-2.7,15.6-2.7c4.6,0,8.5,0.6,11.8,1.8s5.8,2.9,7.5,5.1
		c1.7,2.2,2.6,4.8,2.6,8c0,2.9-0.9,5.6-2.8,8.1c-1.8,2.5-5.1,5.2-9.8,8.3c-4.7,3.1-11.5,6.9-20.4,11.6l-61.8,33V159h147.4v-38.1
		h-69.3L433.9,118.8z"/>
	<polygon class="st0" points="563.7,15.9 509.7,27.3 509.7,64.9 551.1,57.6 551.1,159 599.6,159 599.6,15.9 	"/>
</g>
</svg>
