<?xml version="1.0" encoding="utf-8"?>
<!-- Generator: Adobe Illustrator 27.0.1, SVG Export Plug-In . SVG Version: 6.00 Build 0)  -->
<svg version="1.1" id="_图层_1" xmlns="http://www.w3.org/2000/svg" xmlns:xlink="http://www.w3.org/1999/xlink" x="0px" y="0px"
	 viewBox="0 0 1407.3 219.3" style="enable-background:new 0 0 1407.3 219.3;" xml:space="preserve">
<style type="text/css">
	.st0{fill:#DBDBDB;}
</style>
<g>
	<path class="st0" d="M87.2,140.9c14-5.9,25.5-11.8,34.4-17.8c9-6,15.6-12.2,19.9-18.7s6.5-13.5,6.5-21c0-9.7-2.9-18.2-8.6-25.5
		c-5.8-7.3-13.8-13.1-24.1-17.2S92.9,34.5,79,34.5c-14.5,0-27.6,2.3-39.2,6.8c-11.7,4.5-21,11-28,19.5S0.9,79.4,0,91.2v0.2h48.8
		c0.4-3.5,1.6-6.8,3.6-9.7c2.1-3,5.1-5.3,9.1-7.1c4.1-1.8,9.2-2.7,15.6-2.7c4.5,0,8.5,0.6,11.8,1.8c3.3,1.3,5.8,2.9,7.5,5.1
		c1.7,2.1,2.6,4.8,2.6,8c0,2.9-1,5.6-2.8,8.1s-5.1,5.2-9.8,8.3c-4.7,3-11.5,6.9-20.4,11.6l-61.8,33v33.6h147.3v-38.2H82L87.2,140.9z
		"/>
	<path class="st0" d="M293.9,44.1c-12.5-6.3-27.1-9.4-43.8-9.4s-31.3,3.2-43.8,9.4S184,59,177.1,70.3c-6.9,11.2-10.4,24.4-10.4,39.4
		s3.5,28.1,10.4,39.4c6.9,11.2,16.7,20,29.2,26.2c12.5,6.3,27.1,9.4,43.8,9.4c16.6,0,31.2-3.2,43.8-9.4
		c12.5-6.2,22.3-14.9,29.2-26.2c6.9-11.2,10.4-24.4,10.4-39.4s-3.5-28.1-10.4-39.4C316.2,59.1,306.4,50.3,293.9,44.1z M275.5,135.8
		c-6.1,6.2-14.5,9.3-25.3,9.3c-10.9,0-19.4-3.1-25.6-9.4c-6.1-6.1-9.2-14.9-9.2-26.2c0-11.2,3.1-19.9,9.2-26
		c6.1-6.1,14.6-9.2,25.4-9.2c11,0,19.5,3.1,25.5,9.2c6.1,6.2,9.1,14.9,9.1,26.2C284.6,120.8,281.5,129.6,275.5,135.8z"/>
	<path class="st0" d="M432.8,140.9c14-5.9,25.5-11.8,34.4-17.8c9-6,15.6-12.2,19.9-18.7s6.5-13.5,6.5-21c0-9.7-2.9-18.2-8.6-25.5
		s-13.7-13.1-24-17.2s-22.4-6.2-36.3-6.2c-14.5,0-27.6,2.3-39.2,6.8c-11.7,4.5-21,11-28,19.5s-10.9,18.6-11.8,30.3v0.2h48.8
		c0.4-3.5,1.6-6.8,3.6-9.7c2.1-3,5.1-5.3,9.1-7.1c4.1-1.8,9.2-2.7,15.6-2.7c4.5,0,8.5,0.6,11.8,1.8c3.3,1.3,5.8,2.9,7.5,5.1
		c1.7,2.1,2.6,4.8,2.6,8c0,2.9-1,5.6-2.8,8.1s-5.1,5.2-9.8,8.3c-4.7,3-11.5,6.9-20.4,11.6l-61.8,33v33.6h147.3v-38.2h-69.6
		L432.8,140.9z"/>
	<path class="st0" d="M592.7,143.1l5.2-2.2c14-5.9,25.5-11.8,34.4-17.8c9-6,15.6-12.2,19.9-18.7s6.5-13.5,6.5-21
		c0-9.7-2.9-18.2-8.6-25.5c-5.7-7.3-13.7-13.1-24-17.2s-22.4-6.2-36.3-6.2c-14.5,0-27.6,2.3-39.2,6.8c-11.7,4.5-21,11-28,19.5
		s-10.9,18.6-11.8,30.3v0.2h48.8c0.4-3.5,1.6-6.8,3.6-9.7c2.1-3,5.1-5.3,9.1-7.1c4.1-1.8,9.2-2.7,15.6-2.7c4.5,0,8.5,0.6,11.8,1.8
		c3.3,1.3,5.8,2.9,7.5,5.1c1.7,2.1,2.6,4.8,2.6,8c0,2.9-1,5.6-2.8,8.1s-5.1,5.2-9.8,8.3c-4.7,3-11.5,6.9-20.4,11.6l-61.8,33v33.6
		h147.3v-38.2H592.7z"/>
</g>
</svg>
