<?xml version="1.0" encoding="utf-8"?>
<!-- Generator: Adobe Illustrator 27.0.1, SVG Export Plug-In . SVG Version: 6.00 Build 0)  -->
<svg version="1.1" id="_图层_1" xmlns="http://www.w3.org/2000/svg" xmlns:xlink="http://www.w3.org/1999/xlink" x="0px" y="0px"
	 viewBox="0 0 1407.3 219.3" style="enable-background:new 0 0 1407.3 219.3;" xml:space="preserve">
<style type="text/css">
	.st0{fill:none;stroke:#DBDBDB;stroke-width:2;stroke-miterlimit:10;}
</style>
<g>
	<path class="st0" d="M89.2,118.8c14-5.9,25.5-11.8,34.4-17.8c9-6,15.6-12.2,19.9-18.7c4.3-6.5,6.5-13.5,6.5-21
		c0-9.7-2.9-18.2-8.6-25.5c-5.8-7.3-13.8-13.1-24.1-17.2C107,14.5,94.9,12.4,81,12.4c-14.5,0-27.6,2.3-39.2,6.8
		c-11.7,4.5-21,11-28,19.5S2.9,57.3,2,69v0.2h48.8c0.4-3.5,1.6-6.8,3.6-9.7c2.1-3,5.1-5.3,9.1-7.1c4.1-1.8,9.2-2.7,15.6-2.7
		c4.5,0,8.5,0.6,11.8,1.8c3.3,1.3,5.8,2.9,7.5,5.1c1.7,2.1,2.6,4.8,2.6,8c0,2.9-1,5.6-2.8,8.1s-5.1,5.2-9.8,8.3
		c-4.7,3-11.5,6.9-20.4,11.6l-61.8,33v33.6h147.3V121H84L89.2,118.8z"/>
	<path class="st0" d="M295.9,22c-12.5-6.3-27.1-9.4-43.8-9.4s-31.3,3.2-43.8,9.4c-12.5,6.2-22.3,14.9-29.2,26.2
		c-6.9,11.2-10.4,24.4-10.4,39.4s3.5,28.1,10.4,39.4c6.9,11.2,16.7,20,29.2,26.2c12.5,6.3,27.1,9.4,43.8,9.4
		c16.6,0,31.2-3.2,43.8-9.4c12.5-6.2,22.3-14.9,29.2-26.2c6.9-11.2,10.4-24.4,10.4-39.4s-3.5-28.1-10.4-39.4
		C318.2,37,308.4,28.2,295.9,22z M277.5,113.6c-6.1,6.2-14.5,9.3-25.3,9.3c-10.9,0-19.4-3.1-25.6-9.4c-6.1-6.1-9.2-14.9-9.2-26.2
		c0-11.2,3.1-19.9,9.2-26c6.1-6.1,14.6-9.2,25.4-9.2c11,0,19.5,3.1,25.5,9.2c6.1,6.2,9.1,14.9,9.1,26.2
		C286.6,98.7,283.5,107.4,277.5,113.6z"/>
	<path class="st0" d="M434.8,118.8c14-5.9,25.5-11.8,34.4-17.8c9-6,15.6-12.2,19.9-18.7s6.5-13.5,6.5-21c0-9.7-2.9-18.2-8.6-25.5
		c-5.7-7.3-13.7-13.1-24-17.2c-10.3-4.1-22.4-6.2-36.3-6.2c-14.5,0-27.6,2.3-39.2,6.8c-11.7,4.5-21,11-28,19.5S348.6,57.3,347.7,69
		v0.2h48.8c0.4-3.5,1.6-6.8,3.6-9.7c2.1-3,5.1-5.3,9.1-7.1c4.1-1.8,9.2-2.7,15.6-2.7c4.5,0,8.5,0.6,11.8,1.8
		c3.3,1.3,5.8,2.9,7.5,5.1c1.7,2.1,2.6,4.8,2.6,8c0,2.9-1,5.6-2.8,8.1s-5.1,5.2-9.8,8.3c-4.7,3-11.5,6.9-20.4,11.6l-61.8,33v33.6
		h147.3V121h-69.6L434.8,118.8z"/>
	<path class="st0" d="M594.7,121l5.2-2.2c14-5.9,25.5-11.8,34.4-17.8c9-6,15.6-12.2,19.9-18.7s6.5-13.5,6.5-21
		c0-9.7-2.9-18.2-8.6-25.5c-5.7-7.3-13.7-13.1-24-17.2c-10.3-4.1-22.4-6.2-36.3-6.2c-14.5,0-27.6,2.3-39.2,6.8
		c-11.7,4.5-21,11-28,19.5S513.7,57.3,512.8,69v0.2h48.8c0.4-3.5,1.6-6.8,3.6-9.7c2.1-3,5.1-5.3,9.1-7.1c4.1-1.8,9.2-2.7,15.6-2.7
		c4.5,0,8.5,0.6,11.8,1.8c3.3,1.3,5.8,2.9,7.5,5.1c1.7,2.1,2.6,4.8,2.6,8c0,2.9-1,5.6-2.8,8.1s-5.1,5.2-9.8,8.3
		c-4.7,3-11.5,6.9-20.4,11.6l-61.8,33v33.6h147.3V121H594.7z"/>
</g>
</svg>
