<?xml version="1.0" encoding="utf-8"?>
<!-- Generator: Adobe Illustrator 27.0.1, SVG Export Plug-In . SVG Version: 6.00 Build 0)  -->
<svg version="1.1" id="_图层_1" xmlns="http://www.w3.org/2000/svg" xmlns:xlink="http://www.w3.org/1999/xlink" x="0px" y="0px"
	 viewBox="0 0 47.5 17.8" style="enable-background:new 0 0 47.5 17.8;" xml:space="preserve">
<style type="text/css">
	.st0{fill:#FFFFFF;}
</style>
<g>
	<polygon class="st0" points="0,0 0,3.6 39.3,3.6 35.8,6.7 38.3,9.2 47.5,0 	"/>
	<path class="st0" d="M3.6,8.4c0.2-0.1,0.5-0.1,0.8-0.1c0.6,0,1,0.1,1.5,0.4C6.3,9,6.6,9.4,6.8,9.9L8.7,9C8.5,8.4,8.2,7.9,7.8,7.5
		s-0.9-0.8-1.5-1S5.1,6.1,4.4,6.1c-0.8,0-1.5,0.1-2,0.4C1.8,6.8,1.4,7.2,1,7.7C0.7,8.2,0.5,8.8,0.5,9.5c0,0.8,0.2,1.4,0.7,1.9
		s1.1,1,2,1.2l2.2,0.7c0.3,0.1,0.6,0.3,0.8,0.5c0.2,0.2,0.2,0.4,0.2,0.7c0,0.2-0.1,0.5-0.2,0.6c-0.1,0.2-0.3,0.3-0.6,0.4
		c-0.2,0.1-0.5,0.1-0.8,0.1c-0.6,0-1.2-0.2-1.7-0.5S2.3,14.4,2,13.8l-1.9,0.9c0.2,0.6,0.6,1.2,1,1.7s1,0.8,1.6,1.1s1.3,0.4,2,0.4
		c0.8,0,1.5-0.1,2.1-0.4s1.1-0.7,1.4-1.2s0.5-1.1,0.5-1.8c0-0.8-0.2-1.4-0.7-1.9s-1.1-0.9-2-1.2l-2.2-0.7c-0.3-0.1-0.6-0.3-0.8-0.5
		C2.8,10,2.7,9.8,2.7,9.5c0-0.2,0.1-0.5,0.2-0.6C3.2,8.6,3.3,8.5,3.6,8.4L3.6,8.4z"/>
	<rect x="10.2" y="6.2" class="st0" width="2.3" height="11.5"/>
	<rect x="14.2" y="9.4" class="st0" width="2.3" height="8.3"/>
	<rect x="14.2" y="6.4" class="st0" width="2.3" height="2.3"/>
	<path class="st0" d="M24.4,10.1c-0.2-0.2-0.5-0.4-0.8-0.6c-0.5-0.2-1-0.3-1.6-0.3c-0.8,0-1.5,0.2-2.1,0.6s-1.1,0.9-1.5,1.5
		s-0.6,1.4-0.6,2.2s0.2,1.5,0.5,2.2c0.4,0.7,0.9,1.2,1.5,1.6s1.4,0.6,2.2,0.6c0.6,0,1.1-0.1,1.6-0.3c0.4-0.2,0.7-0.4,0.9-0.7v0.8
		h2.1V6.2h-2.3L24.4,10.1L24.4,10.1z M24.1,14.7c-0.2,0.3-0.4,0.6-0.7,0.8c-0.3,0.2-0.7,0.3-1.1,0.3s-0.8-0.1-1.1-0.3
		s-0.6-0.5-0.8-0.8s-0.3-0.7-0.3-1.2s0.1-0.8,0.3-1.2c0.2-0.3,0.4-0.6,0.8-0.8c0.3-0.2,0.7-0.3,1.1-0.3s0.8,0.1,1.1,0.3
		s0.6,0.5,0.7,0.8c0.2,0.3,0.3,0.7,0.3,1.2S24.3,14.4,24.1,14.7z"/>
	<path class="st0" d="M35.1,10.4c-0.3-0.4-0.8-0.7-1.3-0.9c-0.5-0.2-1.1-0.3-1.7-0.3c-0.8,0-1.5,0.2-2.1,0.6
		c-0.6,0.4-1.1,0.9-1.5,1.5S28,12.7,28,13.5s0.2,1.5,0.5,2.2c0.4,0.7,0.9,1.2,1.5,1.6s1.4,0.6,2.3,0.6c0.6,0,1.1-0.1,1.6-0.2
		c0.5-0.2,0.9-0.4,1.2-0.7c0.3-0.3,0.6-0.7,0.8-1.1L34.1,15c-0.2,0.3-0.4,0.5-0.7,0.7s-0.6,0.2-1,0.2s-0.8-0.1-1.1-0.3
		c-0.3-0.2-0.5-0.5-0.7-0.8c-0.1-0.2-0.1-0.4-0.2-0.6h5.8c0-0.1,0.1-0.2,0.1-0.4c0-0.2,0-0.3,0-0.5c0-0.6-0.1-1.1-0.3-1.6
		S35.5,10.8,35.1,10.4z M31.1,11.3c0.3-0.2,0.6-0.3,1-0.3c0.4,0,0.8,0.1,1,0.3c0.3,0.2,0.5,0.5,0.6,0.8c0,0.1,0,0.2,0.1,0.4h-3.4
		c0-0.1,0-0.2,0.1-0.3C30.7,11.8,30.9,11.5,31.1,11.3z"/>
</g>
</svg>
